<svg width="262" height="127" viewBox="0 0 262 127" fill="none" xmlns="http://www.w3.org/2000/svg">
<path d="M2 74.8285C2 85.5278 2.76173 90.6129 11.3352 92.7716C16.9265 94.1795 28.6295 91.9831 31.2933 85.5275C32.3057 83.0738 36.237 76.3957 36.6852 73.6026C38.4336 62.7064 37.5972 75.6258 41.9966 79.8437C46.869 84.5151 58.4169 84.208 64.2884 82.8527C67.7108 82.0628 67.5708 76.8346 72.2556 76.8346C76.3977 76.8346 81.0995 87.8575 82.3955 92.8831C85.3654 104.399 86.1139 95.155 87.7874 88.2022C88.2289 86.368 93.1631 94.485 93.2598 96.8952C93.9844 114.959 126.577 129.235 126.577 104.919C126.577 88.1421 128.025 71.3494 128.025 54.7679C128.025 46.9832 126.393 54.9748 126.657 59.0029C127.047 64.9406 129.057 78.0711 130.923 65.8012C133.935 45.9839 135.279 76.5076 139.292 75.4972C140.245 75.2572 139.583 56.174 139.614 56.774C139.718 58.7851 141.101 63.8238 141.787 65.9127C142.05 66.7151 142.592 72.8445 143.235 72.4881C144.58 71.7433 144.001 63.008 144.04 63.5723C144.977 77.1932 145.408 90.804 145.408 104.474C145.408 109.328 143.415 121.497 147.983 117.847C151.233 115.251 161.413 120.127 162.711 113.835C163.865 108.242 165.688 99.487 165.688 93.8861C165.688 91.3354 164.739 85.2739 167.137 84.8588C169.839 84.391 168.585 73.4007 168.585 70.3706C168.585 59.27 174.38 56.9327 174.38 68.8103C174.38 72.7901 172.931 75.7789 172.931 79.8437C172.931 84.3877 176.533 86.7178 177.196 91.7686C177.664 95.3333 175.828 100.838 175.828 104.919C175.828 111.683 174.38 118.695 174.38 124.98C174.38 125.325 182.385 121.089 185.324 120.856C191.323 120.382 196.946 118.962 202.627 118.962C203.574 118.962 207.8 120.968 206.248 120.968C204.099 120.968 209.379 121.216 209.95 121.414C213.889 122.778 205.76 120.104 204.317 118.962C200.77 116.155 201.03 115.306 204.156 112.832C204.675 112.422 211.01 107.094 211.238 108.04C211.647 109.74 213.988 113.983 215.583 112.721C222.989 106.86 211.492 74.8285 219.607 74.8285C221.845 74.8285 210.261 56.7414 215.664 50.7558C222.775 42.877 215.048 37.8715 226.769 35.5989C232.793 34.4309 241.313 33.0594 239.485 21.6679C238.736 17.0041 235.532 10.9457 232.322 9.07427C231.259 8.45402 222.912 8.50965 226.85 3.05609C228.464 0.821004 237.069 2.49524 237.875 4.72781C239.917 10.3832 238.117 21.174 238.117 27.7975C238.117 40.4908 235.223 51.6583 239.243 62.7921C241.262 68.3824 249.396 72.1191 244.313 82.407C241.387 88.3293 228.281 106.349 236.668 112.498C241.216 115.832 247.492 127.24 249.625 113.947C250.172 110.537 247.916 99.3272 251.798 103.359C254.498 106.164 255.499 110.53 255.499 104.251C255.499 100.449 253.646 84.0041 255.821 81.2925C259.014 77.3127 259.845 108.067 259.845 108.486C259.845 114.171 260.699 120.197 258.397 124.98" stroke="white" stroke-width="3" stroke-linecap="round"/>
</svg>
