<svg width="12" height="13" viewBox="0 0 12 13" fill="none" xmlns="http://www.w3.org/2000/svg">
<path fill-rule="evenodd" clip-rule="evenodd" d="M0.609184 0.540188C0.528074 0.500247 0.43859 0.489775 0.352337 0.51013C0.266084 0.530485 0.187042 0.580729 0.125461 0.654345C0.0638799 0.727961 0.0226009 0.821553 0.00697738 0.922984C-0.00864613 1.02442 0.00210666 1.129 0.0378411 1.22319L1.84846 5.98569H6.29276C6.4092 5.98569 6.52088 6.03988 6.60321 6.13633C6.68555 6.23278 6.73181 6.3636 6.73181 6.5C6.73181 6.6364 6.68555 6.76722 6.60321 6.86367C6.52088 6.96012 6.4092 7.01431 6.29276 7.01431H1.84846L0.0378411 11.7768C0.00210666 11.871 -0.00864613 11.9756 0.00697738 12.077C0.0226009 12.1784 0.0638799 12.272 0.125461 12.3457C0.187042 12.4193 0.266084 12.4695 0.352337 12.4899C0.43859 12.5102 0.528074 12.4998 0.609184 12.4598L11.7316 6.97385C11.8112 6.93453 11.8791 6.8686 11.9268 6.78432C11.9745 6.70004 12 6.60114 12 6.5C12 6.39886 11.9745 6.29996 11.9268 6.21568C11.8791 6.1314 11.8112 6.06547 11.7316 6.02615L0.609184 0.540188Z" fill="white"/>
</svg>
