<svg width="294" height="127" viewBox="0 0 294 127" fill="none" xmlns="http://www.w3.org/2000/svg">
<path d="M2 74.8285C2 85.5278 2.8562 90.6129 12.4931 92.7716C18.7779 94.1795 31.9324 91.9831 34.9265 85.5275C36.0646 83.0738 40.4834 76.3957 40.9872 73.6026C42.9525 62.7064 42.0124 75.6258 46.9574 79.8437C52.4341 84.5151 65.4143 84.208 72.0141 82.8527C75.8609 82.0628 75.7036 76.8346 80.9694 76.8346C85.6254 76.8346 90.9103 87.8575 92.3671 92.8831C95.7053 104.399 96.5466 95.155 98.4277 88.2022C98.924 86.368 104.47 94.485 104.579 96.8952C105.393 114.959 142.028 129.235 142.028 104.919C142.028 88.1421 143.656 71.3494 143.656 54.7679C143.656 46.9832 141.821 54.9748 142.119 59.0029C142.557 64.9406 144.816 78.0711 146.913 65.8012C150.299 45.9839 151.81 76.5076 156.321 75.4972C157.392 75.2572 156.648 56.174 156.682 56.774C156.799 58.7851 158.354 63.8238 159.125 65.9127C159.421 66.7151 160.03 72.8445 160.753 72.4881C162.264 71.7433 161.614 63.008 161.658 63.5723C162.71 77.1932 163.195 90.804 163.195 104.474C163.195 109.328 160.955 121.497 166.09 117.847C169.743 115.251 181.185 120.127 182.644 113.835C183.941 108.242 185.991 99.487 185.991 93.8861C185.991 91.3354 184.924 85.2739 187.619 84.8588C190.656 84.391 189.247 73.4007 189.247 70.3706C189.247 59.27 195.76 56.9327 195.76 68.8103C195.76 72.7901 194.132 75.7789 194.132 79.8437C194.132 84.3877 198.181 86.7178 198.926 91.7686C199.452 95.3333 197.388 100.838 197.388 104.919C197.388 111.683 195.76 118.695 195.76 124.98C195.76 125.325 204.759 121.089 208.062 120.856C214.805 120.382 221.125 118.962 227.511 118.962C228.576 118.962 233.326 120.968 231.581 120.968C229.165 120.968 235.1 121.216 235.742 121.414C240.17 122.778 231.033 120.104 229.41 118.962C225.424 116.155 225.716 115.306 229.229 112.832C229.813 112.422 236.934 107.094 237.19 108.04C237.65 109.74 240.281 113.983 242.074 112.721C250.399 106.86 237.475 74.8285 246.597 74.8285C249.112 74.8285 236.092 56.7414 242.165 50.7558C250.158 42.877 241.472 37.8715 254.648 35.5989C261.419 34.4309 270.995 33.0594 268.94 21.6679C268.099 17.0041 264.497 10.9457 260.889 9.07427C259.694 8.45402 250.312 8.50965 254.738 3.05609C256.552 0.821004 266.225 2.49524 267.131 4.72781C269.426 10.3832 267.402 21.174 267.402 27.7975C267.402 40.4908 264.15 51.6583 268.669 62.7921C270.937 68.3824 280.081 72.1191 274.368 82.407C271.079 88.3293 256.347 106.349 265.774 112.498C270.886 115.832 277.94 127.24 280.338 113.947C280.953 110.537 278.417 99.3272 282.78 103.359C285.815 106.164 286.941 110.53 286.941 104.251C286.941 100.449 284.858 84.0041 287.303 81.2925C290.892 77.3127 291.826 108.067 291.826 108.486C291.826 114.171 292.786 120.197 290.198 124.98" stroke="#949494" stroke-width="3" stroke-linecap="round"/>
</svg>
